<mxfile host="app.diagrams.net" modified="2021-07-06T23:11:56.262Z" agent="5.0 (Windows NT 10.0; Win64; x64) AppleWebKit/537.36 (KHTML, like Gecko) Chrome/91.0.4472.124 Safari/537.36" etag="nUUG7StW60doCGn5tjDK" version="14.8.1" type="github">
  <diagram name="Page-1" id="e7e014a7-5840-1c2e-5031-d8a46d1fe8dd">
    <mxGraphModel dx="1014" dy="545" grid="1" gridSize="10" guides="1" tooltips="1" connect="1" arrows="1" fold="1" page="1" pageScale="1" pageWidth="1169" pageHeight="826" background="none" math="0" shadow="0">
      <root>
        <mxCell id="0" />
        <mxCell id="1" parent="0" />
        <mxCell id="2" value="Recebimento" style="swimlane;whiteSpace=wrap" parent="1" vertex="1">
          <mxGeometry x="36.5" y="128" width="280" height="570" as="geometry" />
        </mxCell>
        <mxCell id="5" value="" style="ellipse;shape=startState;fillColor=#000000;strokeColor=#ff0000;" parent="2" vertex="1">
          <mxGeometry x="100" y="40" width="30" height="30" as="geometry" />
        </mxCell>
        <mxCell id="6" value="" style="edgeStyle=elbowEdgeStyle;elbow=horizontal;verticalAlign=bottom;endArrow=open;endSize=8;strokeColor=#FF0000;endFill=1;rounded=0" parent="2" source="5" target="7" edge="1">
          <mxGeometry x="100" y="40" as="geometry">
            <mxPoint x="115" y="110" as="targetPoint" />
          </mxGeometry>
        </mxCell>
        <mxCell id="7" value="Balança / Entrada NF" style="" parent="2" vertex="1">
          <mxGeometry x="60" y="110" width="110" height="50" as="geometry" />
        </mxCell>
        <mxCell id="8" value="CQ&#xa;Inspeção" style="" parent="2" vertex="1">
          <mxGeometry x="60" y="220" width="110" height="50" as="geometry" />
        </mxCell>
        <mxCell id="9" value="" style="endArrow=open;strokeColor=#FF0000;endFill=1;rounded=0" parent="2" source="7" target="8" edge="1">
          <mxGeometry relative="1" as="geometry" />
        </mxCell>
        <mxCell id="lAZd5NCJZbFxyWjqJA0O-63" style="edgeStyle=orthogonalEdgeStyle;rounded=0;orthogonalLoop=1;jettySize=auto;html=1;strokeColor=#FF3333;" edge="1" parent="2" source="10">
          <mxGeometry relative="1" as="geometry">
            <mxPoint x="133.5" y="562" as="targetPoint" />
          </mxGeometry>
        </mxCell>
        <mxCell id="10" value="Depósito &#xa;(patio | Tabik)" style="" parent="2" vertex="1">
          <mxGeometry x="60" y="325" width="110" height="50" as="geometry" />
        </mxCell>
        <mxCell id="11" value="" style="endArrow=open;strokeColor=#FF0000;endFill=1;rounded=0" parent="2" source="8" target="10" edge="1">
          <mxGeometry relative="1" as="geometry" />
        </mxCell>
        <mxCell id="12" value="" style="edgeStyle=elbowEdgeStyle;elbow=horizontal;strokeColor=#FF0000;endArrow=open;endFill=1;rounded=0" parent="2" source="10" target="7" edge="1">
          <mxGeometry width="100" height="100" relative="1" as="geometry">
            <mxPoint x="160" y="290" as="sourcePoint" />
            <mxPoint x="260" y="190" as="targetPoint" />
            <Array as="points">
              <mxPoint x="30" y="250" />
            </Array>
          </mxGeometry>
        </mxCell>
        <mxCell id="3" value="Corte(pré-classificação) / secagem" style="swimlane;whiteSpace=wrap" parent="1" vertex="1">
          <mxGeometry x="317" y="128" width="280" height="570" as="geometry" />
        </mxCell>
        <mxCell id="lAZd5NCJZbFxyWjqJA0O-42" value="" style="edgeStyle=orthogonalEdgeStyle;rounded=0;orthogonalLoop=1;jettySize=auto;html=1;" edge="1" parent="3" source="13">
          <mxGeometry relative="1" as="geometry">
            <mxPoint x="125" y="55" as="targetPoint" />
          </mxGeometry>
        </mxCell>
        <mxCell id="13" value="" style="ellipse;shape=startState;fillColor=#000000;strokeColor=#ff0000;" parent="3" vertex="1">
          <mxGeometry x="60" y="40" width="30" height="30" as="geometry" />
        </mxCell>
        <mxCell id="14" value="" style="edgeStyle=elbowEdgeStyle;elbow=horizontal;verticalAlign=bottom;endArrow=open;endSize=8;strokeColor=#FF0000;endFill=1;rounded=0" parent="3" source="13" target="15" edge="1">
          <mxGeometry x="40" y="20" as="geometry">
            <mxPoint x="55" y="90" as="targetPoint" />
          </mxGeometry>
        </mxCell>
        <mxCell id="15" value="Lote p/ corte" style="" parent="3" vertex="1">
          <mxGeometry x="20" y="110" width="110" height="50" as="geometry" />
        </mxCell>
        <mxCell id="16" value="Corte" style="" parent="3" vertex="1">
          <mxGeometry x="20" y="220" width="110" height="50" as="geometry" />
        </mxCell>
        <mxCell id="17" value="" style="endArrow=open;strokeColor=#FF0000;endFill=1;rounded=0" parent="3" source="15" target="16" edge="1">
          <mxGeometry relative="1" as="geometry" />
        </mxCell>
        <object label="" id="19">
          <mxCell style="endArrow=open;strokeColor=#FF0000;endFill=1;rounded=0;exitX=0.5;exitY=1;exitDx=0;exitDy=0;" parent="3" source="21" edge="1">
            <mxGeometry relative="1" as="geometry">
              <mxPoint x="135" y="332" as="targetPoint" />
            </mxGeometry>
          </mxCell>
        </object>
        <mxCell id="lAZd5NCJZbFxyWjqJA0O-71" value="" style="edgeStyle=orthogonalEdgeStyle;rounded=0;orthogonalLoop=1;jettySize=auto;html=1;strokeColor=#FF3333;" edge="1" parent="3" source="21" target="lAZd5NCJZbFxyWjqJA0O-46">
          <mxGeometry relative="1" as="geometry" />
        </mxCell>
        <mxCell id="21" value="boa p/ grade" style="rhombus;fillColor=#ffffc0;strokeColor=#ff0000;" parent="3" vertex="1">
          <mxGeometry x="159" y="221" width="110" height="55" as="geometry" />
        </mxCell>
        <mxCell id="22" value="Não" style="edgeStyle=elbowEdgeStyle;elbow=horizontal;align=left;verticalAlign=bottom;endArrow=open;endSize=8;strokeColor=#FF0000;exitX=0.5;exitY=0;endFill=1;rounded=0;startArrow=none;" parent="3" source="lAZd5NCJZbFxyWjqJA0O-46" edge="1">
          <mxGeometry x="-1" y="90" relative="1" as="geometry">
            <mxPoint x="74.5" y="192" as="targetPoint" />
            <Array as="points" />
            <mxPoint x="79" y="-48" as="offset" />
          </mxGeometry>
        </mxCell>
        <mxCell id="24" value="" style="endArrow=open;strokeColor=#FF0000;endFill=1;rounded=0" parent="3" source="16" target="21" edge="1">
          <mxGeometry relative="1" as="geometry" />
        </mxCell>
        <mxCell id="lAZd5NCJZbFxyWjqJA0O-69" value="" style="edgeStyle=orthogonalEdgeStyle;rounded=0;orthogonalLoop=1;jettySize=auto;html=1;strokeColor=#FF3333;" edge="1" parent="3" source="30" target="lAZd5NCJZbFxyWjqJA0O-68">
          <mxGeometry relative="1" as="geometry" />
        </mxCell>
        <mxCell id="30" value="Grade&#xa;(identificar Tabik &#xa;ou Etiqueta)" style="" parent="3" vertex="1">
          <mxGeometry x="85" y="342" width="110" height="68" as="geometry" />
        </mxCell>
        <mxCell id="31" value="Depósito&#xa;(Estufa / pátio)" style="shape=note;whiteSpace=wrap;size=17" parent="3" vertex="1">
          <mxGeometry x="138.5" y="456" width="100" height="50" as="geometry" />
        </mxCell>
        <mxCell id="41" value="" style="edgeStyle=elbowEdgeStyle;elbow=horizontal;strokeColor=#FF0000;endArrow=open;endFill=1;rounded=0;exitX=0.5;exitY=1;exitDx=0;exitDy=0;" parent="3" source="30" edge="1">
          <mxGeometry width="100" height="100" relative="1" as="geometry">
            <mxPoint x="60" y="480" as="sourcePoint" />
            <mxPoint x="140" y="452" as="targetPoint" />
            <Array as="points">
              <mxPoint x="140" y="422" />
              <mxPoint x="85" y="450" />
              <mxPoint x="195" y="400" />
            </Array>
          </mxGeometry>
        </mxCell>
        <mxCell id="lAZd5NCJZbFxyWjqJA0O-46" value="Aproveitamento" style="shape=process;whiteSpace=wrap;html=1;backgroundOutline=1;strokeColor=#000000;fillColor=#FFFFFF;" vertex="1" parent="3">
          <mxGeometry x="107" y="170" width="93" height="40" as="geometry" />
        </mxCell>
        <mxCell id="lAZd5NCJZbFxyWjqJA0O-47" value="" style="edgeStyle=elbowEdgeStyle;elbow=horizontal;align=left;verticalAlign=bottom;endArrow=none;endSize=8;strokeColor=#FF0000;exitX=0.5;exitY=0;endFill=1;rounded=0;" edge="1" parent="3" source="21" target="lAZd5NCJZbFxyWjqJA0O-46">
          <mxGeometry x="-1" relative="1" as="geometry">
            <mxPoint x="519.5" y="342" as="targetPoint" />
            <Array as="points">
              <mxPoint x="215" y="200" />
              <mxPoint x="635" y="330" />
            </Array>
            <mxPoint x="659" y="371" as="sourcePoint" />
          </mxGeometry>
        </mxCell>
        <mxCell id="lAZd5NCJZbFxyWjqJA0O-68" value="Visão compu-tacional&lt;br&gt;" style="ellipse;shape=cloud;whiteSpace=wrap;html=1;" vertex="1" parent="3">
          <mxGeometry y="336" width="50" height="80" as="geometry" />
        </mxCell>
        <mxCell id="4" value="Produção final (embalado" style="swimlane;whiteSpace=wrap" parent="1" vertex="1">
          <mxGeometry x="596.5" y="128" width="280" height="570" as="geometry" />
        </mxCell>
        <mxCell id="lAZd5NCJZbFxyWjqJA0O-49" value="" style="edgeStyle=orthogonalEdgeStyle;rounded=0;orthogonalLoop=1;jettySize=auto;html=1;" edge="1" parent="4" source="33" target="lAZd5NCJZbFxyWjqJA0O-48">
          <mxGeometry relative="1" as="geometry" />
        </mxCell>
        <mxCell id="33" value="Desgradiador&#xa;Lote X" style="" parent="4" vertex="1">
          <mxGeometry x="75.5" y="72" width="110" height="50" as="geometry" />
        </mxCell>
        <mxCell id="37" value="" style="edgeStyle=none;strokeColor=#FF0000;endArrow=open;endFill=1;rounded=0" parent="4" edge="1">
          <mxGeometry width="100" height="100" relative="1" as="geometry">
            <mxPoint x="-74.5" y="452" as="sourcePoint" />
            <mxPoint x="105.5" y="42" as="targetPoint" />
            <Array as="points">
              <mxPoint x="45.5" y="92" />
            </Array>
          </mxGeometry>
        </mxCell>
        <mxCell id="38" value="" style="ellipse;shape=endState;fillColor=#000000;strokeColor=#ff0000" parent="4" vertex="1">
          <mxGeometry x="115.5" y="32" width="30" height="30" as="geometry" />
        </mxCell>
        <mxCell id="lAZd5NCJZbFxyWjqJA0O-51" value="" style="edgeStyle=orthogonalEdgeStyle;rounded=0;orthogonalLoop=1;jettySize=auto;html=1;" edge="1" parent="4" source="lAZd5NCJZbFxyWjqJA0O-48" target="lAZd5NCJZbFxyWjqJA0O-50">
          <mxGeometry relative="1" as="geometry" />
        </mxCell>
        <mxCell id="lAZd5NCJZbFxyWjqJA0O-48" value="Aferir umidade" style="whiteSpace=wrap;html=1;" vertex="1" parent="4">
          <mxGeometry x="70.5" y="165" width="120" height="60" as="geometry" />
        </mxCell>
        <mxCell id="lAZd5NCJZbFxyWjqJA0O-73" style="edgeStyle=orthogonalEdgeStyle;rounded=0;orthogonalLoop=1;jettySize=auto;html=1;entryX=0.5;entryY=1;entryDx=0;entryDy=0;strokeColor=#FF3333;" edge="1" parent="4" source="lAZd5NCJZbFxyWjqJA0O-50" target="4">
          <mxGeometry relative="1" as="geometry" />
        </mxCell>
        <mxCell id="lAZd5NCJZbFxyWjqJA0O-50" value="Identificar pacote / Produto final (etiqueta cb)" style="whiteSpace=wrap;html=1;" vertex="1" parent="4">
          <mxGeometry x="70.5" y="281" width="120" height="60" as="geometry" />
        </mxCell>
        <mxCell id="20" value="" style="endArrow=open;strokeColor=#FF0000;endFill=1;rounded=0" parent="1" source="10" edge="1">
          <mxGeometry relative="1" as="geometry">
            <mxPoint x="370" y="200" as="targetPoint" />
          </mxGeometry>
        </mxCell>
        <mxCell id="lAZd5NCJZbFxyWjqJA0O-53" value="DASHBOARD&amp;nbsp;&lt;br&gt;Informações gerenciais)" style="rounded=0;whiteSpace=wrap;html=1;fillColor=#dae8fc;strokeColor=#6c8ebf;" vertex="1" parent="1">
          <mxGeometry x="36" y="68" width="1120" height="60" as="geometry" />
        </mxCell>
        <mxCell id="lAZd5NCJZbFxyWjqJA0O-54" value="Comercial" style="swimlane;whiteSpace=wrap" vertex="1" parent="1">
          <mxGeometry x="876.5" y="128" width="280" height="570" as="geometry" />
        </mxCell>
        <mxCell id="lAZd5NCJZbFxyWjqJA0O-55" value="" style="edgeStyle=orthogonalEdgeStyle;rounded=0;orthogonalLoop=1;jettySize=auto;html=1;" edge="1" parent="lAZd5NCJZbFxyWjqJA0O-54" source="lAZd5NCJZbFxyWjqJA0O-56" target="lAZd5NCJZbFxyWjqJA0O-60">
          <mxGeometry relative="1" as="geometry" />
        </mxCell>
        <mxCell id="lAZd5NCJZbFxyWjqJA0O-56" value="Pedido" style="" vertex="1" parent="lAZd5NCJZbFxyWjqJA0O-54">
          <mxGeometry x="75.5" y="72" width="110" height="50" as="geometry" />
        </mxCell>
        <mxCell id="lAZd5NCJZbFxyWjqJA0O-57" value="" style="edgeStyle=none;strokeColor=#FF0000;endArrow=open;endFill=1;rounded=0;exitX=0.76;exitY=-0.03;exitDx=0;exitDy=0;exitPerimeter=0;" edge="1" parent="lAZd5NCJZbFxyWjqJA0O-54" source="lAZd5NCJZbFxyWjqJA0O-62">
          <mxGeometry width="100" height="100" relative="1" as="geometry">
            <mxPoint x="-74.5" y="472" as="sourcePoint" />
            <mxPoint x="105.5" y="42" as="targetPoint" />
            <Array as="points">
              <mxPoint x="45.5" y="92" />
            </Array>
          </mxGeometry>
        </mxCell>
        <mxCell id="lAZd5NCJZbFxyWjqJA0O-58" value="" style="ellipse;shape=endState;fillColor=#000000;strokeColor=#ff0000" vertex="1" parent="lAZd5NCJZbFxyWjqJA0O-54">
          <mxGeometry x="115.5" y="32" width="30" height="30" as="geometry" />
        </mxCell>
        <mxCell id="lAZd5NCJZbFxyWjqJA0O-59" value="" style="edgeStyle=orthogonalEdgeStyle;rounded=0;orthogonalLoop=1;jettySize=auto;html=1;" edge="1" parent="lAZd5NCJZbFxyWjqJA0O-54" source="lAZd5NCJZbFxyWjqJA0O-60" target="lAZd5NCJZbFxyWjqJA0O-61">
          <mxGeometry relative="1" as="geometry" />
        </mxCell>
        <mxCell id="lAZd5NCJZbFxyWjqJA0O-60" value="Romaneio embarque" style="whiteSpace=wrap;html=1;" vertex="1" parent="lAZd5NCJZbFxyWjqJA0O-54">
          <mxGeometry x="70.5" y="165" width="120" height="60" as="geometry" />
        </mxCell>
        <mxCell id="lAZd5NCJZbFxyWjqJA0O-61" value="Json p/ NF" style="whiteSpace=wrap;html=1;" vertex="1" parent="lAZd5NCJZbFxyWjqJA0O-54">
          <mxGeometry x="70.5" y="281" width="120" height="60" as="geometry" />
        </mxCell>
        <mxCell id="lAZd5NCJZbFxyWjqJA0O-62" value="Estoque&lt;br&gt;Toras&amp;nbsp; /&amp;nbsp; Grades&amp;nbsp; /&amp;nbsp; &amp;nbsp;Pacotes&amp;nbsp;" style="rounded=0;whiteSpace=wrap;html=1;fillColor=#dae8fc;strokeColor=#6c8ebf;" vertex="1" parent="1">
          <mxGeometry x="36.5" y="698" width="1120" height="60" as="geometry" />
        </mxCell>
        <mxCell id="lAZd5NCJZbFxyWjqJA0O-65" style="edgeStyle=orthogonalEdgeStyle;rounded=0;orthogonalLoop=1;jettySize=auto;html=1;strokeColor=#FF3333;" edge="1" parent="1" source="30">
          <mxGeometry relative="1" as="geometry">
            <mxPoint x="399.9999999999998" y="690" as="targetPoint" />
          </mxGeometry>
        </mxCell>
      </root>
    </mxGraphModel>
  </diagram>
</mxfile>
